<svg version="1.2" xmlns="http://www.w3.org/2000/svg" viewBox="0 0 427 98" width="261" height="60">
	<title>svanviken logo</title>
	<style>
		.s0 { fill: #ffffff } 
	</style>
	<path id="VANVIKEN - Din f채rdtj채nst " class="s0" aria-label="VANVIKEN
- Din f채rdtj채nst
"  d="m126.1 15l-6.9 16.4-6.7-16.4h-10.1l11.8 28h9.3l11.8-28zm44.1 28h9.7l-12.2-28h-9.3l-12.3 28h9.6l1.9-4.9h10.7zm-10-11.7l2.8-7 2.7 7zm53.4-16.3v12.7l-10.6-12.7h-7.8v28h9.2v-12.7l10.7 12.7h7.8v-28zm48.2 0l-6.8 16.4-6.7-16.4h-10.2l11.9 28h9.2l11.9-28zm24 28h9.5v-28h-9.5zm46.3 0h10.9l-11.7-15.7 11.2-12.3h-10.3l-9.2 10.2v-10.2h-9.3v28h9.3v-6.9l2.1-2.4zm35.3-7.1v-3.7h11.9v-6.8h-11.9v-3.3h13.5v-7.1h-22.8v28h23.3v-7.1zm49.9-20.9v12.7l-10.6-12.7h-7.8v28h9.2v-12.7l10.7 12.7h7.7v-28zm-255.2 57.6h6.6l0.5-2.5h-6.6zm18.3 5.4h7.9c6.2 0 10.4-3.9 10.4-9.8 0-4.3-3-7-8.1-7h-6.8zm3.6-2.6l2.3-11.5h3.9c3.5 0 5.3 1.7 5.3 4.5 0 4-2.7 7-7.2 7zm21.9-12.3c1.2 0 2.1-0.8 2.1-2 0-0.9-0.8-1.6-1.8-1.6-1.3 0-2.1 0.8-2.1 1.9 0 0.9 0.7 1.7 1.8 1.7zm-4.7 14.9h3l2.5-12.8h-3zm17.8-12.9c-1.7 0-3.2 0.5-4.4 1.5l0.3-1.4h-2.9l-2.5 12.8h3l1.3-6.6c0.5-2.5 2-3.7 4.2-3.7 1.8 0 2.6 0.8 2.6 2.3 0 0.3 0 0.6-0.1 1l-1.4 7h3l1.4-7.1c0.1-0.5 0.2-1 0.2-1.5 0-2.8-1.9-4.3-4.7-4.3zm24.4-2.6c0.7 0 1.2 0.2 1.6 0.5l1.2-2.2c-0.7-0.5-1.7-0.8-2.8-0.8-2.9 0-4.6 1.7-5.2 4.4l-0.1 0.9h-2.1l-0.5 2.4h2.1l-2.1 10.3h3l2.1-10.3h3.4l0.5-2.4h-3.5l0.1-0.7c0.3-1.4 1-2.1 2.3-2.1zm8.8 0.7c0.8 0 1.5-0.7 1.5-1.6 0-0.8-0.6-1.3-1.4-1.3-0.8 0-1.5 0.6-1.5 1.6 0 0.8 0.6 1.3 1.4 1.3zm4.6 0c0.8 0 1.6-0.7 1.6-1.6 0-0.8-0.7-1.3-1.4-1.3-0.9 0-1.5 0.6-1.5 1.6 0 0.8 0.5 1.3 1.3 1.3zm0.4 2l-0.4 1.9c-0.9-1.4-2.4-2-4.4-2-4.1 0-7.2 3.1-7.2 7.4 0 3.6 2.5 5.7 5.6 5.7 1.7 0 3.1-0.5 4.2-1.5l-0.2 1.3h2.8l2.6-12.8zm-5.6 10.4c-2.1 0-3.4-1.2-3.4-3.2 0-2.8 1.9-4.8 4.4-4.8 2.2 0 3.4 1.2 3.4 3.2 0 2.8-1.8 4.8-4.4 4.8zm16.3-8.7l0.3-1.7h-2.8l-2.6 12.8h3l1.3-6.3c0.5-2.7 2.1-3.9 4.5-3.9 0.2 0 0.4 0.1 0.7 0.1l0.6-2.8c-2.2 0-3.8 0.4-5 1.8zm19.2-6.7l-1.4 6.8c-0.8-1.3-2.4-1.9-4.4-1.9-4.1 0-7.2 3.1-7.2 7.4 0 3.6 2.5 5.7 5.7 5.7 1.6 0 3-0.6 4.1-1.5l-0.2 1.3h2.8l3.6-17.8zm-6.6 15.4c-2.1 0-3.4-1.2-3.4-3.2 0-2.8 1.9-4.8 4.4-4.8 2.2 0 3.4 1.2 3.4 3.2 0 2.8-1.8 4.8-4.4 4.8zm17.3-7.9h3.5l0.4-2.4h-3.4l0.6-2.9h-3l-0.6 2.9h-2.1l-0.5 2.4h2.1l-1.2 6c-0.1 0.4-0.1 0.7-0.1 1.1 0 2.1 1.5 3.4 3.7 3.4 1 0 2.2-0.2 3.1-0.8l-0.5-2.2c-0.5 0.3-1.1 0.5-1.7 0.5-1.1 0-1.5-0.5-1.5-1.4 0-0.2 0-0.4 0-0.6zm10.9-4.6c1.2 0 2-0.8 2-2 0-0.9-0.7-1.6-1.8-1.6-1.2 0-2 0.9-2 1.9 0 0.9 0.7 1.7 1.8 1.7zm-6.9 19.8c2.9 0 4.5-1.6 5.1-4.6l2.6-13.1h-3l-2.6 13.1c-0.3 1.5-0.9 2.1-2.1 2.1-0.6 0-1.2-0.2-1.7-0.5l-1.2 2.2c0.7 0.5 1.7 0.8 2.9 0.8zm17.5-19.7c0.8 0 1.5-0.6 1.5-1.6 0-0.8-0.5-1.3-1.3-1.3-0.8 0-1.6 0.7-1.6 1.6 0 0.8 0.6 1.3 1.4 1.3zm4.6 0c0.9 0 1.6-0.6 1.6-1.6 0-0.8-0.6-1.3-1.4-1.3-0.8 0-1.5 0.7-1.5 1.6 0 0.8 0.6 1.3 1.3 1.3zm0.4 2l-0.4 1.9c-0.8-1.3-2.3-2-4.3-2-4.1 0-7.2 3.1-7.2 7.5 0 3.5 2.5 5.6 5.6 5.6 1.7 0 3.1-0.5 4.2-1.5l-0.3 1.3h2.9l2.5-12.8zm-5.5 10.4c-2.2 0-3.4-1.2-3.4-3.2 0-2.8 1.9-4.8 4.4-4.8 2.2 0 3.4 1.2 3.4 3.2 0 2.9-1.9 4.8-4.4 4.8zm20.7-10.5c-1.7 0-3.2 0.5-4.4 1.5l0.3-1.4h-2.9l-2.5 12.8h3l1.3-6.6c0.5-2.5 2.1-3.7 4.2-3.7 1.8 0 2.6 0.8 2.6 2.3 0 0.3 0 0.6-0.1 1l-1.4 7h3l1.4-7.1c0.1-0.5 0.2-1 0.2-1.5 0-2.8-1.8-4.3-4.7-4.3zm12.6 13.1c3.6 0 6.1-1.5 6.1-4.3 0-4.3-6.9-2.6-6.9-4.8 0-0.9 0.9-1.6 2.9-1.6 1.2 0 2.7 0.3 3.8 1l1.1-2.3c-1.1-0.7-2.9-1.1-4.6-1.1-3.7 0-6.1 1.6-6.1 4.3 0 4.3 6.9 2.7 6.9 4.8 0 1-0.9 1.6-2.9 1.6-1.7 0-3.4-0.5-4.5-1.3l-1.2 2.3c1.1 0.8 3.2 1.4 5.4 1.4zm14.7-10.5h3.5l0.4-2.4h-3.4l0.6-2.9h-3l-0.6 2.9h-2.1l-0.5 2.4h2.1l-1.2 6.1c-0.1 0.3-0.1 0.7-0.1 1 0 2.1 1.5 3.4 3.7 3.4 1 0 2.2-0.2 3.1-0.8l-0.5-2.2c-0.5 0.4-1.1 0.5-1.7 0.5-1.1 0-1.5-0.5-1.5-1.4 0-0.2 0-0.4 0-0.6z"/>
	<path id="S" class="s0" aria-label="S"  d="m39.2 92.9c26 0 42.2-12.5 42.2-31.2 0-25.8-39.9-19.9-39.9-29.1 0-2.9 4.1-5.6 12.3-5.6 8.2 0 16.3 2 23 6.2l10.1-20.5c-7.7-4.7-18.8-7.2-31.3-7.2-26.4 0-42.2 12.4-42.2 31.4 0 25.9 39.7 20.8 39.7 29.6 0 3-3.8 4.9-11.1 4.9-9.3 0-18.8-2.4-28.2-7.7l-10.8 20.7c8 4.9 21.2 8.5 36.2 8.5z"/>
</svg>